<?xml version="1.0" encoding="UTF-8"?>
<svg id="Layer_1" xmlns="http://www.w3.org/2000/svg" version="1.1" viewBox="0 0 3000 534">
  <!-- Generator: Adobe Illustrator 30.1.0, SVG Export Plug-In . SVG Version: 2.1.1 Build 136)  -->
  <path d="M0,498.361h21c33.31,0,46.345-19.551,58.655-52.137L245.482,11.018h34.034l164.377,448.963c12.31,34.034,21.002,40.537,48.517,40.537h18.105v21.74h-206.38v-23.897h37.656c26.794,0,34.034-13.759,25.345-38.38l-42.723-120.929h-158.587l-35.483,98.481c-13.757,36.931-5.068,60.828,36.931,60.828h26.794v23.897H0v-23.897ZM307.756,290.534l-58.655-165.828h-5.068l-60.104,165.828h123.826Z"/>
  <path d="M499.655,500.534h16.656c23.172,0,34.758-8.689,34.758-33.31v-220.137c0-27.518-10.862-36.207-37.656-36.207h-10.862v-21.724h107.897l5.068,55.034h1.449c20.277-35.483,61.552-60.828,108.621-60.828,61.552,0,104.275,42.725,104.275,98.483v185.379c0,24.621,10.138,33.31,36.931,33.31h9.413v21.724h-164.379v-21.724h14.483c25.345,0,38.38-8.689,38.38-33.31v-164.379c0-52.861-31.139-73.138-67.346-73.138-39.826,0-81.103,31.861-81.103,88.346v149.172c0,24.621,13.035,33.31,38.38,33.31h14.483v21.724h-169.449v-21.724Z"/>
  <path d="M882.529,369.465c0-99.206,68.068-186.103,167.998-186.103,65.896,0,121.654,37.656,121.654,91.241,0,28.966-15.93,42.725-36.929,42.725-22.448,0-35.483-15.207-35.483-39.104,0-7.241,2.173-15.932,2.173-22.448,0-28.964-22.45-42.723-54.312-42.723-66.62,0-97.033,58.655-97.033,131.791,0,85.449,41.275,139.758,109.343,139.758,39.828,0,83.276-18.827,94.138-62.999h18.827c-7.241,60.104-61.55,112.24-137.585,112.24-89.792,0-152.791-67.344-152.791-164.379Z"/>
  <path d="M1183.769,500.534h16.656c23.172,0,34.758-8.689,34.758-33.31V55.19c0-25.345-7.241-33.31-31.137-33.31h-19.553V.156h115.862v244.034h1.449c20.277-36.207,61.552-60.828,107.897-60.828,61.552,0,104.275,42.725,104.275,98.483v185.379c0,24.621,10.138,33.31,36.931,33.31h9.413v21.724h-164.379v-21.724h14.483c25.345,0,38.38-8.689,38.38-33.31v-164.379c0-52.861-31.139-73.138-67.346-73.138-39.826,0-81.103,31.861-81.103,88.346v149.172c0,24.621,13.035,33.31,38.38,33.31h14.483v21.724h-169.449v-21.724Z"/>
  <path d="M1556.383,362.948c0-102.103,81.105-179.586,170.897-179.586,86.171,0,162.206,68.793,162.206,170.895s-81.103,179.586-170.897,179.586c-86.171,0-162.206-68.793-162.206-170.895ZM1721.486,504.155c60.104,0,94.138-55.76,94.138-143.379,0-94.138-31.861-147.723-91.241-147.723-60.104,0-94.138,55.758-94.138,143.377,0,93.414,31.861,147.725,91.241,147.725Z"/>
  <path d="M2118.005,189.156h136.137v21.724h-13.035c-21,0-31.137,10.862-40.551,32.586l-120.931,281.689h-28.964l-128.896-288.93c-9.413-20.277-17.38-25.345-38.38-25.345h-12.31v-21.724h171.622v21.724h-29.691c-20.275,0-25.345,13.035-16.654,33.31l81.825,188.276h3.621l80.379-188.276c8.689-20.275,3.621-33.31-18.827-33.31h-25.345v-21.724Z"/>
  <path d="M2236.042,500.534h14.483c25.345,0,38.38-10.862,38.38-33.31v-223.034c0-25.345-7.243-33.31-31.137-33.31h-21.726v-21.724h118.034v278.068c0,22.448,13.035,33.31,38.38,33.31h14.483v21.724h-170.897v-21.724ZM2321.491,26.226c27.518,0,48.517,20.275,48.517,49.242s-21,48.515-48.517,48.515c-28.24,0-48.517-19.551-48.517-48.515s20.277-49.242,48.517-49.242Z"/>
  <path d="M2421.418,365.846c0-104.277,71.69-182.484,167.276-182.484,76.758,0,139.034,52.863,133.242,144.828h-231.723c-.724,4.344-.724,8.689-.724,13.759,0,91.241,49.964,147.723,119.481,147.723,41.277,0,84.724-20.275,97.035-68.068h18.827c-8.689,65.896-62.999,112.24-138.31,112.24-94.138,0-165.103-67.344-165.103-167.998ZM2630.694,297.775c10.14,0,23.172,0,23.172-21.724,0-31.861-26.792-62.999-70.241-62.999-41.275,0-77.482,27.516-89.792,84.722h136.861Z"/>
  <path d="M2764.656,498.361v-86.171h23.172c2.173,68.793,45.62,90.516,91.241,90.516,44.172,0,70.241-21,70.241-56.482,0-23.172-11.586-36.207-47.069-49.966l-51.412-20.275c-55.034-21.726-78.206-54.312-78.206-93.414,0-57.931,47.067-99.208,120.205-99.208,31.861,0,65.896,7.243,94.862,21.724v82.552h-23.172c0-54.309-38.38-73.136-78.206-73.136-35.483,0-61.552,15.205-61.552,46.345,0,20.275,10.138,34.758,49.242,49.24l52.137,19.553c50.69,18.827,73.863,52.137,73.863,94.86,0,62.276-47.069,109.345-124.551,109.345-46.345,0-89.794-17.38-110.794-35.483Z"/>
</svg>