<?xml version="1.0" encoding="UTF-8"?>
<svg id="Layer_1" xmlns="http://www.w3.org/2000/svg" version="1.1" viewBox="0 0 3000 1920">
  <!-- Generator: Adobe Illustrator 30.1.0, SVG Export Plug-In . SVG Version: 2.1.1 Build 136)  -->
  <path d="M2338.249,459.167l645.048,370.066V19.269l-645.048,370.067C1997.029,130.531,1584.977-5.905,1163.581.388,742.174,6.68,334.011,155.365,0,424.251c341.409,275.493,760.559,424.645,1191.722,424.068,411.905.49,813.347-135.764,1146.527-389.152h0Z"/>
  <path d="M3000,1495.74c-334.007-268.881-742.175-417.564-1163.57-423.857-421.406-6.293-833.463,130.142-1174.676,388.945L16.699,1090.756v809.982l645.055-370.074c333.185,253.378,734.618,389.642,1146.524,389.155,431.168.566,850.321-148.584,1191.722-424.079Z"/>
</svg>