<?xml version="1.0" encoding="UTF-8"?>
<svg id="Layer_1" xmlns="http://www.w3.org/2000/svg" version="1.1" viewBox="0 0 3000 442">
  <!-- Generator: Adobe Illustrator 30.1.0, SVG Export Plug-In . SVG Version: 2.1.1 Build 136)  -->
  <path d="M0,399.274h16.819c26.679,0,37.119-15.659,46.979-41.758L196.616,8.942h27.259l131.656,359.593c9.86,27.259,16.821,32.468,38.86,32.468h14.501v17.412h-165.298v-19.14h30.16c21.46,0,27.259-11.02,20.3-30.74l-34.219-96.857h-127.019l-28.42,78.878c-11.018,29.58-4.059,48.719,29.58,48.719h21.46v19.14H0v-19.14ZM246.494,232.817l-46.979-132.818h-4.059l-48.139,132.818h99.178Z"/>
  <path d="M400.194,401.014h13.34c18.56,0,27.839-6.959,27.839-26.679v-176.317c0-22.04-8.7-29-30.16-29h-8.7v-17.399h86.419l4.059,44.079h1.16c16.241-28.42,49.3-48.719,86.999-48.719,49.3,0,83.518,34.22,83.518,78.879v148.477c0,19.72,8.12,26.679,29.58,26.679h7.54v17.399h-131.658v-17.399h11.6c20.3,0,30.74-6.959,30.74-26.679v-131.658c0-42.338-24.941-58.579-53.94-58.579-31.898,0-64.959,25.519-64.959,70.76v119.477c0,19.72,10.44,26.679,30.74,26.679h11.6v17.399h-135.718v-17.399Z"/>
  <path d="M706.853,296.036c0-79.458,54.519-149.057,134.557-149.057,52.778,0,97.437,30.16,97.437,73.078,0,23.2-12.759,34.22-29.578,34.22-17.98,0-28.42-12.18-28.42-31.32,0-5.799,1.74-12.76,1.74-17.98,0-23.199-17.981-34.219-43.5-34.219-53.359,0-77.717,46.979-77.717,105.557,0,68.439,33.059,111.938,87.577,111.938,31.9,0,66.699-15.079,75.399-50.458h15.079c-5.799,48.139-49.298,89.898-110.198,89.898-71.918,0-122.376-53.939-122.376-131.658Z"/>
  <path d="M948.128,401.014h13.34c18.56,0,27.839-6.959,27.839-26.679V44.321c0-20.3-5.799-26.679-24.939-26.679h-15.661V.242h92.798v195.456h1.16c16.241-29,49.3-48.719,86.419-48.719,49.3,0,83.518,34.22,83.518,78.879v148.477c0,19.72,8.12,26.679,29.58,26.679h7.54v17.399h-131.658v-17.399h11.6c20.3,0,30.74-6.959,30.74-26.679v-131.658c0-42.338-24.941-58.579-53.94-58.579-31.898,0-64.959,25.519-64.959,70.76v119.477c0,19.72,10.44,26.679,30.74,26.679h11.6v17.399h-135.718v-17.399Z"/>
  <path d="M1246.57,290.817c0-81.778,64.96-143.838,136.879-143.838,69.018,0,129.917,55.099,129.917,136.877s-64.959,143.838-136.879,143.838c-69.018,0-129.917-55.099-129.917-136.877ZM1378.807,403.915c48.139,0,75.399-44.66,75.399-114.838,0-75.399-25.519-118.317-73.078-118.317-48.139,0-75.399,44.659-75.399,114.837,0,74.819,25.519,118.319,73.078,118.319Z"/>
  <path d="M1696.395,151.619h109.037v17.399h-10.44c-16.819,0-24.939,8.7-32.479,26.099l-96.859,225.616h-23.199l-103.238-231.415c-7.54-16.241-13.921-20.3-30.74-20.3h-9.86v-17.399h137.459v17.399h-23.78c-16.239,0-20.3,10.44-13.339,26.679l65.537,150.797h2.9l64.379-150.797c6.959-16.239,2.9-26.679-15.079-26.679h-20.3v-17.399Z"/>
  <path d="M1790.935,401.014h11.6c20.3,0,30.74-8.7,30.74-26.679v-178.637c0-20.3-5.801-26.679-24.939-26.679h-17.401v-17.399h94.538v222.716c0,17.98,10.44,26.679,30.74,26.679h11.6v17.399h-136.879v-17.399ZM1859.375,21.122c22.04,0,38.86,16.239,38.86,39.44s-16.819,38.858-38.86,38.858c-22.619,0-38.86-15.659-38.86-38.858s16.241-39.44,38.86-39.44Z"/>
  <path d="M1939.411,293.137c0-83.52,57.419-146.158,133.978-146.158,61.478,0,111.358,42.34,106.719,115.999h-185.596c-.58,3.479-.58,6.959-.58,11.02,0,73.078,40.018,118.317,95.697,118.317,33.06,0,67.859-16.239,77.719-54.519h15.079c-6.959,52.778-50.458,89.898-110.778,89.898-75.399,0-132.238-53.939-132.238-134.557ZM2107.028,238.617c8.121,0,18.56,0,18.56-17.399,0-25.519-21.458-50.458-56.259-50.458-33.059,0-62.058,22.039-71.918,67.858h109.618Z"/>
  <path d="M2214.323,399.274v-69.018h18.56c1.74,55.099,36.539,72.498,73.078,72.498,35.379,0,56.259-16.819,56.259-45.239,0-18.56-9.28-29-37.699-40.02l-41.178-16.239c-44.079-17.401-62.638-43.5-62.638-74.819,0-46.399,37.698-79.459,96.277-79.459,25.519,0,52.778,5.801,75.979,17.399v66.119h-18.56c0-43.499-30.74-58.578-62.638-58.578-28.42,0-49.3,12.179-49.3,37.119,0,16.239,8.12,27.839,39.44,39.438l41.758,15.661c40.6,15.079,59.159,41.758,59.159,75.977,0,49.88-37.699,87.579-99.758,87.579-37.119,0-71.92-13.921-88.739-28.42Z"/>
  <g>
    <path d="M2887.951,194.437l109.221,62.66V119.952l-109.221,62.661c-57.776-43.821-127.546-66.923-198.898-65.858-71.354,1.066-140.465,26.241-197.02,71.77,57.808,46.647,128.78,71.902,201.785,71.804,69.745.083,137.718-22.988,194.133-65.892h0Z"/>
    <path d="M3000,369.952c-56.555-45.528-125.667-70.703-197.019-71.769-71.354-1.066-141.124,22.036-198.899,65.857l-109.222-62.661v137.148l109.222-62.662c56.416,42.903,124.387,65.975,194.132,65.893,73.006.096,143.978-25.159,201.785-71.806Z"/>
  </g>
</svg>